<svg width="894" height="553" viewBox="0 0 894 553" fill="none" xmlns="http://www.w3.org/2000/svg">
<path d="M880 0H0V540H880V0Z" fill="white"/>
<path d="M287 234.5L281.5 238L281.5 231L287 234.5Z" fill="#FCE0E9"/>
<path d="M444 161.578L449.481 158.049L449.518 165.049L444 161.578Z" fill="#FCE0E9"/>
<path d="M755.421 336L758.999 341.45L752 341.549L755.421 336Z" fill="#FCE0E9"/>
<path d="M252.205 38C252.205 34.134 255.339 31 259.205 31H603.904C607.77 31 610.904 34.134 610.904 38V223.583C610.904 227.449 614.038 230.583 617.904 230.583H853C856.866 230.583 860 233.717 860 237.583V403.208C860 407.074 856.866 410.208 853 410.208H259.205C255.339 410.208 252.205 407.074 252.205 403.208V38Z" fill="#FCE0E9" stroke="#E2477C" stroke-width="1.5"/>
<path d="M852.029 31H628.839C624.436 31 620.867 34.5743 620.867 38.9833V212.621C620.867 217.03 624.436 220.604 628.839 220.604H852.029C856.431 220.604 860 217.03 860 212.621V38.9833C860 34.5743 856.431 31 852.029 31Z" fill="#FBF1D2" stroke="#C99A14" stroke-width="1.5"/>
<path d="M852.029 420.188H40.9711C36.5688 420.188 33 423.762 33 428.171V502.017C33 506.426 36.5688 510 40.9711 510H852.029C856.431 510 860 506.426 860 502.017V428.171C860 423.762 856.431 420.188 852.029 420.188Z" fill="#DDECF8" stroke="#1F6BC4" stroke-width="1.5"/>
<path d="M234.27 31H40.9711C36.5688 31 33 34.5743 33 38.9833V402.225C33 406.634 36.5688 410.208 40.9711 410.208H234.27C238.672 410.208 242.241 406.634 242.241 402.225V38.9833C242.241 34.5743 238.672 31 234.27 31Z" fill="#3FAE5C" fill-opacity="0.35" stroke="#3FAE5C" stroke-width="1.5"/>
<path d="M445 162.5L451 159L451 166L445 162.5Z" fill="#FCE0E9"/>
<path d="M283.004 239L283.004 231L290 235L283.004 239Z" fill="#FCE0E9"/>
<path d="M756 335.5L759.5 342.5H751.603L756 335.5Z" fill="#FCE0E9"/>
</svg>
