<svg width="481" height="108" viewBox="0 0 481 108" fill="none" xmlns="http://www.w3.org/2000/svg">
<path d="M171.773 9.81824H124.646C121.392 9.81824 118.755 12.4557 118.755 15.7091V92.291C118.755 95.5444 121.392 98.1819 124.646 98.1819H171.773C175.026 98.1819 177.664 95.5444 177.664 92.291V15.7091C177.664 12.4557 175.026 9.81824 171.773 9.81824Z" stroke="#3FAE5C" stroke-width="1.47273" stroke-dasharray="3.93 2.95"/>
<path d="M289.591 9.81824H193.373C190.119 9.81824 187.482 12.4557 187.482 15.7091V92.291C187.482 95.5444 190.119 98.1819 193.373 98.1819H289.591C292.844 98.1819 295.482 95.5444 295.482 92.291V15.7091C295.482 12.4557 292.844 9.81824 289.591 9.81824Z" stroke="#E2477C" stroke-width="1.47273" stroke-dasharray="3.93 2.95"/>
<path d="M356.355 9.81824H311.191C307.937 9.81824 305.3 12.4557 305.3 15.7091V92.291C305.3 95.5444 307.937 98.1819 311.191 98.1819H356.355C359.608 98.1819 362.246 95.5444 362.246 92.291V15.7091C362.246 12.4557 359.608 9.81824 356.355 9.81824Z" stroke="#F5C242" stroke-width="1.47273" stroke-dasharray="3.93 2.95"/>
<path d="M166.864 21.6001H129.555C127.928 21.6001 126.609 22.9188 126.609 24.5456V32.4001C126.609 34.0268 127.928 35.3456 129.555 35.3456H166.864C168.49 35.3456 169.809 34.0268 169.809 32.4001V24.5456C169.809 22.9188 168.49 21.6001 166.864 21.6001Z" fill="#3FAE5C"/>
<path d="M235.591 45.1636H198.282C196.655 45.1636 195.336 46.4823 195.336 48.109V55.9636C195.336 57.5903 196.655 58.909 198.282 58.909H235.591C237.218 58.909 238.536 57.5903 238.536 55.9636V48.109C238.536 46.4823 237.218 45.1636 235.591 45.1636Z" fill="#E2477C"/>
<path d="M351.445 41.2363H318.064C316.437 41.2363 315.118 42.5551 315.118 44.1818V55.9636C315.118 57.5903 316.437 58.9091 318.064 58.9091H351.445C353.072 58.9091 354.391 57.5903 354.391 55.9636V44.1818C354.391 42.5551 353.072 41.2363 351.445 41.2363Z" fill="#F5C242"/>
<path d="M235.591 68.7273H198.282C196.655 68.7273 195.336 70.046 195.336 71.6727V79.5273C195.336 81.154 196.655 82.4727 198.282 82.4727H235.591C237.218 82.4727 238.536 81.154 238.536 79.5273V71.6727C238.536 70.046 237.218 68.7273 235.591 68.7273Z" fill="#3FAE5C" stroke="#D63333" stroke-width="1.96364"/>
<path opacity="0.4" d="M166.864 78.5454H129.555C127.928 78.5454 126.609 79.8641 126.609 81.4909V89.3454C126.609 90.9721 127.928 92.2909 129.555 92.2909H166.864C168.49 92.2909 169.809 90.9721 169.809 89.3454V81.4909C169.809 79.8641 168.49 78.5454 166.864 78.5454Z" stroke="#1A1A1F" stroke-width="0.981818" stroke-dasharray="1.96 1.96"/>
</svg>
