<svg width="298" height="95" viewBox="0 0 298 95" fill="none" xmlns="http://www.w3.org/2000/svg">
<path d="M24.913 61V52.805H27.597C28.4257 52.805 29.148 52.9737 29.764 53.311C30.38 53.6483 30.8567 54.125 31.194 54.741C31.5313 55.3497 31.7 56.0683 31.7 56.897C31.7 57.7183 31.5313 58.437 31.194 59.053C30.8567 59.669 30.38 60.1493 29.764 60.494C29.148 60.8313 28.4257 61 27.597 61H24.913ZM25.991 60.01H27.608C28.2167 60.01 28.741 59.8817 29.181 59.625C29.6283 59.3683 29.973 59.009 30.215 58.547C30.457 58.0777 30.578 57.5277 30.578 56.897C30.578 56.259 30.4533 55.709 30.204 55.247C29.962 54.785 29.6173 54.4293 29.17 54.18C28.73 53.9233 28.2093 53.795 27.608 53.795H25.991V60.01ZM35.6733 61.132C35.1013 61.132 34.5917 60.9963 34.1443 60.725C33.697 60.4537 33.345 60.0833 33.0883 59.614C32.8317 59.1373 32.7033 58.6057 32.7033 58.019C32.7033 57.425 32.828 56.897 33.0773 56.435C33.334 55.973 33.6787 55.61 34.1113 55.346C34.5513 55.0747 35.0427 54.939 35.5853 54.939C36.0253 54.939 36.414 55.0197 36.7513 55.181C37.096 55.335 37.3857 55.5477 37.6203 55.819C37.8623 56.083 38.0457 56.3873 38.1703 56.732C38.3023 57.0693 38.3683 57.4213 38.3683 57.788C38.3683 57.8687 38.361 57.9603 38.3463 58.063C38.339 58.1583 38.328 58.25 38.3133 58.338H33.4513V57.458H37.7193L37.2353 57.854C37.3013 57.4727 37.2647 57.1317 37.1253 56.831C36.986 56.5303 36.7807 56.292 36.5093 56.116C36.238 55.94 35.93 55.852 35.5853 55.852C35.2407 55.852 34.9253 55.94 34.6393 56.116C34.3533 56.292 34.1297 56.545 33.9683 56.875C33.8143 57.1977 33.752 57.5827 33.7813 58.03C33.752 58.4627 33.818 58.844 33.9793 59.174C34.148 59.4967 34.3827 59.7497 34.6833 59.933C34.9913 60.109 35.325 60.197 35.6843 60.197C36.0803 60.197 36.414 60.1053 36.6853 59.922C36.9567 59.7387 37.1767 59.504 37.3453 59.218L38.2033 59.658C38.086 59.9293 37.9027 60.1787 37.6533 60.406C37.4113 60.626 37.1217 60.802 36.7843 60.934C36.4543 61.066 36.084 61.132 35.6733 61.132ZM39.7022 63.2V55.071H40.7032V56.347L40.5712 56.094C40.7912 55.742 41.0918 55.4633 41.4732 55.258C41.8545 55.0453 42.2908 54.939 42.7822 54.939C43.3395 54.939 43.8382 55.0747 44.2782 55.346C44.7255 55.6173 45.0775 55.9877 45.3342 56.457C45.5908 56.919 45.7192 57.447 45.7192 58.041C45.7192 58.6203 45.5908 59.1447 45.3342 59.614C45.0775 60.0833 44.7255 60.4537 44.2782 60.725C43.8382 60.9963 43.3358 61.132 42.7712 61.132C42.2945 61.132 41.8582 61.0257 41.4622 60.813C41.0735 60.6003 40.7728 60.2997 40.5602 59.911L40.7252 59.735V63.2H39.7022ZM42.6942 60.142C43.0682 60.142 43.4018 60.0503 43.6952 59.867C43.9885 59.6837 44.2158 59.4343 44.3772 59.119C44.5458 58.7963 44.6302 58.437 44.6302 58.041C44.6302 57.6303 44.5458 57.271 44.3772 56.963C44.2158 56.6477 43.9885 56.3983 43.6952 56.215C43.4018 56.0243 43.0682 55.929 42.6942 55.929C42.3202 55.929 41.9828 56.0207 41.6822 56.204C41.3888 56.3873 41.1542 56.6403 40.9782 56.963C40.8095 57.2783 40.7252 57.6377 40.7252 58.041C40.7252 58.437 40.8095 58.7963 40.9782 59.119C41.1542 59.4343 41.3888 59.6837 41.6822 59.867C41.9828 60.0503 42.3202 60.142 42.6942 60.142ZM49.7886 61.132C49.2166 61.132 48.7069 60.9963 48.2596 60.725C47.8122 60.4537 47.4602 60.0833 47.2036 59.614C46.9469 59.1373 46.8186 58.6057 46.8186 58.019C46.8186 57.425 46.9432 56.897 47.1926 56.435C47.4492 55.973 47.7939 55.61 48.2266 55.346C48.6666 55.0747 49.1579 54.939 49.7006 54.939C50.1406 54.939 50.5292 55.0197 50.8666 55.181C51.2112 55.335 51.5009 55.5477 51.7356 55.819C51.9776 56.083 52.1609 56.3873 52.2856 56.732C52.4176 57.0693 52.4836 57.4213 52.4836 57.788C52.4836 57.8687 52.4762 57.9603 52.4616 58.063C52.4542 58.1583 52.4432 58.25 52.4286 58.338H47.5666V57.458H51.8346L51.3506 57.854C51.4166 57.4727 51.3799 57.1317 51.2406 56.831C51.1012 56.5303 50.8959 56.292 50.6246 56.116C50.3532 55.94 50.0452 55.852 49.7006 55.852C49.3559 55.852 49.0406 55.94 48.7546 56.116C48.4686 56.292 48.2449 56.545 48.0836 56.875C47.9296 57.1977 47.8672 57.5827 47.8966 58.03C47.8672 58.4627 47.9332 58.844 48.0946 59.174C48.2632 59.4967 48.4979 59.7497 48.7986 59.933C49.1066 60.109 49.4402 60.197 49.7996 60.197C50.1956 60.197 50.5292 60.1053 50.8006 59.922C51.0719 59.7387 51.2919 59.504 51.4606 59.218L52.3186 59.658C52.2012 59.9293 52.0179 60.1787 51.7686 60.406C51.5266 60.626 51.2369 60.802 50.8996 60.934C50.5696 61.066 50.1992 61.132 49.7886 61.132ZM53.8174 61V55.071H54.8184V56.226L54.6534 56.127C54.8001 55.753 55.0347 55.4633 55.3574 55.258C55.6874 55.0453 56.0724 54.939 56.5124 54.939C56.9377 54.939 57.3154 55.0343 57.6454 55.225C57.9827 55.4157 58.2467 55.6797 58.4374 56.017C58.6354 56.3543 58.7344 56.7357 58.7344 57.161V61H57.7004V57.491C57.7004 57.161 57.6417 56.8823 57.5244 56.655C57.4071 56.4277 57.2384 56.2517 57.0184 56.127C56.8057 55.995 56.5601 55.929 56.2814 55.929C56.0027 55.929 55.7534 55.995 55.5334 56.127C55.3207 56.2517 55.1521 56.4313 55.0274 56.666C54.9027 56.8933 54.8404 57.1683 54.8404 57.491V61H53.8174ZM62.8933 61.132C62.3359 61.132 61.8336 60.9963 61.3863 60.725C60.9463 60.4537 60.5979 60.0833 60.3413 59.614C60.0846 59.1447 59.9563 58.6203 59.9563 58.041C59.9563 57.447 60.0846 56.919 60.3413 56.457C60.5979 55.9877 60.9463 55.6173 61.3863 55.346C61.8336 55.0747 62.3359 54.939 62.8933 54.939C63.3846 54.939 63.8209 55.0453 64.2023 55.258C64.5836 55.4633 64.8843 55.742 65.1043 56.094L64.9393 56.347V52.673H65.9733V61H64.9723V59.735L65.1043 59.911C64.8989 60.2997 64.5983 60.6003 64.2023 60.813C63.8136 61.0257 63.3773 61.132 62.8933 61.132ZM62.9813 60.142C63.3553 60.142 63.6889 60.0503 63.9823 59.867C64.2756 59.6837 64.5066 59.4343 64.6753 59.119C64.8513 58.7963 64.9393 58.437 64.9393 58.041C64.9393 57.6377 64.8513 57.2783 64.6753 56.963C64.5066 56.6403 64.2756 56.3873 63.9823 56.204C63.6889 56.0207 63.3553 55.929 62.9813 55.929C62.6146 55.929 62.2809 56.0243 61.9803 56.215C61.6869 56.3983 61.4559 56.6477 61.2873 56.963C61.1186 57.271 61.0343 57.6303 61.0343 58.041C61.0343 58.437 61.1186 58.7963 61.2873 59.119C61.4559 59.4343 61.6869 59.6837 61.9803 59.867C62.2736 60.0503 62.6073 60.142 62.9813 60.142ZM70.2846 61.132C69.7126 61.132 69.203 60.9963 68.7556 60.725C68.3083 60.4537 67.9563 60.0833 67.6996 59.614C67.443 59.1373 67.3146 58.6057 67.3146 58.019C67.3146 57.425 67.4393 56.897 67.6886 56.435C67.9453 55.973 68.29 55.61 68.7226 55.346C69.1626 55.0747 69.654 54.939 70.1966 54.939C70.6366 54.939 71.0253 55.0197 71.3626 55.181C71.7073 55.335 71.997 55.5477 72.2316 55.819C72.4736 56.083 72.657 56.3873 72.7816 56.732C72.9136 57.0693 72.9796 57.4213 72.9796 57.788C72.9796 57.8687 72.9723 57.9603 72.9576 58.063C72.9503 58.1583 72.9393 58.25 72.9246 58.338H68.0626V57.458H72.3306L71.8466 57.854C71.9126 57.4727 71.876 57.1317 71.7366 56.831C71.5973 56.5303 71.392 56.292 71.1206 56.116C70.8493 55.94 70.5413 55.852 70.1966 55.852C69.852 55.852 69.5366 55.94 69.2506 56.116C68.9646 56.292 68.741 56.545 68.5796 56.875C68.4256 57.1977 68.3633 57.5827 68.3926 58.03C68.3633 58.4627 68.4293 58.844 68.5906 59.174C68.7593 59.4967 68.994 59.7497 69.2946 59.933C69.6026 60.109 69.9363 60.197 70.2956 60.197C70.6916 60.197 71.0253 60.1053 71.2966 59.922C71.568 59.7387 71.788 59.504 71.9566 59.218L72.8146 59.658C72.6973 59.9293 72.514 60.1787 72.2646 60.406C72.0226 60.626 71.733 60.802 71.3956 60.934C71.0656 61.066 70.6953 61.132 70.2846 61.132ZM74.3135 61V55.071H75.3145V56.226L75.1495 56.127C75.2962 55.753 75.5308 55.4633 75.8535 55.258C76.1835 55.0453 76.5685 54.939 77.0085 54.939C77.4338 54.939 77.8115 55.0343 78.1415 55.225C78.4788 55.4157 78.7428 55.6797 78.9335 56.017C79.1315 56.3543 79.2305 56.7357 79.2305 57.161V61H78.1965V57.491C78.1965 57.161 78.1378 56.8823 78.0205 56.655C77.9032 56.4277 77.7345 56.2517 77.5145 56.127C77.3018 55.995 77.0562 55.929 76.7775 55.929C76.4988 55.929 76.2495 55.995 76.0295 56.127C75.8168 56.2517 75.6482 56.4313 75.5235 56.666C75.3988 56.8933 75.3365 57.1683 75.3365 57.491V61H74.3135ZM83.4443 61.132C82.865 61.132 82.348 60.9963 81.8933 60.725C81.446 60.4537 81.094 60.0833 80.8373 59.614C80.5807 59.1447 80.4523 58.6167 80.4523 58.03C80.4523 57.436 80.5807 56.908 80.8373 56.446C81.094 55.984 81.446 55.6173 81.8933 55.346C82.348 55.0747 82.865 54.939 83.4443 54.939C83.833 54.939 84.196 55.0087 84.5333 55.148C84.8707 55.2873 85.1677 55.4743 85.4243 55.709C85.681 55.9437 85.868 56.2187 85.9853 56.534L85.0723 56.974C84.933 56.666 84.7203 56.4167 84.4343 56.226C84.1483 56.028 83.8183 55.929 83.4443 55.929C83.085 55.929 82.7587 56.0207 82.4653 56.204C82.1793 56.3873 81.952 56.6367 81.7833 56.952C81.6147 57.2673 81.5303 57.6303 81.5303 58.041C81.5303 58.437 81.6147 58.7963 81.7833 59.119C81.952 59.4343 82.1793 59.6837 82.4653 59.867C82.7587 60.0503 83.085 60.142 83.4443 60.142C83.8183 60.142 84.1483 60.0467 84.4343 59.856C84.7203 59.658 84.933 59.3977 85.0723 59.075L85.9853 59.537C85.868 59.845 85.681 60.12 85.4243 60.362C85.1677 60.5967 84.8707 60.7837 84.5333 60.923C84.196 61.0623 83.833 61.132 83.4443 61.132ZM87.6413 63.42C87.5093 63.42 87.3773 63.409 87.2453 63.387C87.1133 63.365 86.9886 63.3283 86.8713 63.277V62.364C86.9519 62.3787 87.0509 62.3933 87.1683 62.408C87.2929 62.43 87.4139 62.441 87.5313 62.441C87.8759 62.441 88.1363 62.364 88.3123 62.21C88.4956 62.0633 88.6679 61.8067 88.8293 61.44L89.2033 60.549L89.1813 61.44L86.6513 55.071H87.7623L89.7313 60.131H89.4013L91.3593 55.071H92.4923L89.8193 61.704C89.6946 62.0193 89.5333 62.3053 89.3353 62.562C89.1446 62.826 88.9099 63.035 88.6313 63.189C88.3526 63.343 88.0226 63.42 87.6413 63.42Z" fill="#6B6760"/>
<path d="M88 33.9276L78 28.1541L78 39.7011L88 33.9276ZM29 33.9276L29 34.9276L79 34.9276L79 33.9276L79 32.9276L29 32.9276L29 33.9276Z" fill="black"/>
<path d="M177.5 33.0959L167.5 27.3224V38.8695L177.5 33.0959ZM119.5 33.0959V34.0959H168.5V33.0959V32.0959H119.5V33.0959Z" fill="black"/>
<path d="M175.5 33.0959L168.554 37.0015L168.608 29L175.5 33.0959Z" fill="#E6DFD5"/>
<path d="M117.913 60.05V51.855H118.991V60.05H117.913ZM120.692 60.05V54.121H121.693V55.331L121.55 55.144C121.697 54.77 121.932 54.484 122.254 54.286C122.577 54.088 122.94 53.989 123.343 53.989C123.805 53.989 124.22 54.1174 124.586 54.374C124.96 54.6307 125.217 54.968 125.356 55.386L125.07 55.397C125.224 54.935 125.485 54.5867 125.851 54.352C126.218 54.11 126.625 53.989 127.072 53.989C127.483 53.989 127.853 54.0844 128.183 54.275C128.521 54.4657 128.788 54.7297 128.986 55.067C129.184 55.4044 129.283 55.7857 129.283 56.211V60.05H128.249V56.541C128.249 56.211 128.191 55.9324 128.073 55.705C127.956 55.4777 127.795 55.3017 127.589 55.177C127.391 55.045 127.157 54.979 126.885 54.979C126.621 54.979 126.383 55.045 126.17 55.177C125.965 55.3017 125.8 55.4814 125.675 55.716C125.558 55.9434 125.499 56.2184 125.499 56.541V60.05H124.465V56.541C124.465 56.211 124.407 55.9324 124.289 55.705C124.172 55.4777 124.011 55.3017 123.805 55.177C123.607 55.045 123.373 54.979 123.101 54.979C122.837 54.979 122.599 55.045 122.386 55.177C122.181 55.3017 122.016 55.4814 121.891 55.716C121.774 55.9434 121.715 56.2184 121.715 56.541V60.05H120.692ZM130.736 62.25V54.121H131.737V55.397L131.605 55.144C131.825 54.792 132.126 54.5134 132.507 54.308C132.889 54.0954 133.325 53.989 133.816 53.989C134.374 53.989 134.872 54.1247 135.312 54.396C135.76 54.6674 136.112 55.0377 136.368 55.507C136.625 55.969 136.753 56.497 136.753 57.091C136.753 57.6704 136.625 58.1947 136.368 58.664C136.112 59.1334 135.76 59.5037 135.312 59.775C134.872 60.0464 134.37 60.182 133.805 60.182C133.329 60.182 132.892 60.0757 132.496 59.863C132.108 59.6504 131.807 59.3497 131.594 58.961L131.759 58.785V62.25H130.736ZM133.728 59.192C134.102 59.192 134.436 59.1004 134.729 58.917C135.023 58.7337 135.25 58.4844 135.411 58.169C135.58 57.8464 135.664 57.487 135.664 57.091C135.664 56.6804 135.58 56.321 135.411 56.013C135.25 55.6977 135.023 55.4484 134.729 55.265C134.436 55.0744 134.102 54.979 133.728 54.979C133.354 54.979 133.017 55.0707 132.716 55.254C132.423 55.4374 132.188 55.6904 132.012 56.013C131.844 56.3284 131.759 56.6877 131.759 57.091C131.759 57.487 131.844 57.8464 132.012 58.169C132.188 58.4844 132.423 58.7337 132.716 58.917C133.017 59.1004 133.354 59.192 133.728 59.192ZM138.095 60.05V51.723H139.118V60.05H138.095ZM143.433 60.182C142.861 60.182 142.351 60.0464 141.904 59.775C141.457 59.5037 141.105 59.1334 140.848 58.664C140.591 58.1874 140.463 57.6557 140.463 57.069C140.463 56.475 140.588 55.947 140.837 55.485C141.094 55.023 141.438 54.66 141.871 54.396C142.311 54.1247 142.802 53.989 143.345 53.989C143.785 53.989 144.174 54.0697 144.511 54.231C144.856 54.385 145.145 54.5977 145.38 54.869C145.622 55.133 145.805 55.4374 145.93 55.782C146.062 56.1194 146.128 56.4714 146.128 56.838C146.128 56.9187 146.121 57.0104 146.106 57.113C146.099 57.2084 146.088 57.3 146.073 57.388H141.211V56.508H145.479L144.995 56.904C145.061 56.5227 145.024 56.1817 144.885 55.881C144.746 55.5804 144.54 55.342 144.269 55.166C143.998 54.99 143.69 54.902 143.345 54.902C143 54.902 142.685 54.99 142.399 55.166C142.113 55.342 141.889 55.595 141.728 55.925C141.574 56.2477 141.512 56.6327 141.541 57.08C141.512 57.5127 141.578 57.894 141.739 58.224C141.908 58.5467 142.142 58.7997 142.443 58.983C142.751 59.159 143.085 59.247 143.444 59.247C143.84 59.247 144.174 59.1554 144.445 58.972C144.716 58.7887 144.936 58.554 145.105 58.268L145.963 58.708C145.846 58.9794 145.662 59.2287 145.413 59.456C145.171 59.676 144.881 59.852 144.544 59.984C144.214 60.116 143.844 60.182 143.433 60.182ZM147.462 60.05V54.121H148.463V55.331L148.32 55.144C148.467 54.77 148.701 54.484 149.024 54.286C149.347 54.088 149.71 53.989 150.113 53.989C150.575 53.989 150.989 54.1174 151.356 54.374C151.73 54.6307 151.987 54.968 152.126 55.386L151.84 55.397C151.994 54.935 152.254 54.5867 152.621 54.352C152.988 54.11 153.395 53.989 153.842 53.989C154.253 53.989 154.623 54.0844 154.953 54.275C155.29 54.4657 155.558 54.7297 155.756 55.067C155.954 55.4044 156.053 55.7857 156.053 56.211V60.05H155.019V56.541C155.019 56.211 154.96 55.9324 154.843 55.705C154.726 55.4777 154.564 55.3017 154.359 55.177C154.161 55.045 153.926 54.979 153.655 54.979C153.391 54.979 153.153 55.045 152.94 55.177C152.735 55.3017 152.57 55.4814 152.445 55.716C152.328 55.9434 152.269 56.2184 152.269 56.541V60.05H151.235V56.541C151.235 56.211 151.176 55.9324 151.059 55.705C150.942 55.4777 150.78 55.3017 150.575 55.177C150.377 55.045 150.142 54.979 149.871 54.979C149.607 54.979 149.369 55.045 149.156 55.177C148.951 55.3017 148.786 55.4814 148.661 55.716C148.544 55.9434 148.485 56.2184 148.485 56.541V60.05H147.462ZM160.234 60.182C159.662 60.182 159.152 60.0464 158.705 59.775C158.258 59.5037 157.906 59.1334 157.649 58.664C157.392 58.1874 157.264 57.6557 157.264 57.069C157.264 56.475 157.389 55.947 157.638 55.485C157.895 55.023 158.239 54.66 158.672 54.396C159.112 54.1247 159.603 53.989 160.146 53.989C160.586 53.989 160.975 54.0697 161.312 54.231C161.657 54.385 161.946 54.5977 162.181 54.869C162.423 55.133 162.606 55.4374 162.731 55.782C162.863 56.1194 162.929 56.4714 162.929 56.838C162.929 56.9187 162.922 57.0104 162.907 57.113C162.9 57.2084 162.889 57.3 162.874 57.388H158.012V56.508H162.28L161.796 56.904C161.862 56.5227 161.825 56.1817 161.686 55.881C161.547 55.5804 161.341 55.342 161.07 55.166C160.799 54.99 160.491 54.902 160.146 54.902C159.801 54.902 159.486 54.99 159.2 55.166C158.914 55.342 158.69 55.595 158.529 55.925C158.375 56.2477 158.313 56.6327 158.342 57.08C158.313 57.5127 158.379 57.894 158.54 58.224C158.709 58.5467 158.943 58.7997 159.244 58.983C159.552 59.159 159.886 59.247 160.245 59.247C160.641 59.247 160.975 59.1554 161.246 58.972C161.517 58.7887 161.737 58.554 161.906 58.268L162.764 58.708C162.647 58.9794 162.463 59.2287 162.214 59.456C161.972 59.676 161.682 59.852 161.345 59.984C161.015 60.116 160.645 60.182 160.234 60.182ZM164.263 60.05V54.121H165.264V55.276L165.099 55.177C165.245 54.803 165.48 54.5134 165.803 54.308C166.133 54.0954 166.518 53.989 166.958 53.989C167.383 53.989 167.761 54.0844 168.091 54.275C168.428 54.4657 168.692 54.7297 168.883 55.067C169.081 55.4044 169.18 55.7857 169.18 56.211V60.05H168.146V56.541C168.146 56.211 168.087 55.9324 167.97 55.705C167.852 55.4777 167.684 55.3017 167.464 55.177C167.251 55.045 167.005 54.979 166.727 54.979C166.448 54.979 166.199 55.045 165.979 55.177C165.766 55.3017 165.597 55.4814 165.473 55.716C165.348 55.9434 165.286 56.2184 165.286 56.541V60.05H164.263ZM173.053 60.116C172.473 60.116 172.026 59.951 171.711 59.621C171.403 59.291 171.249 58.8254 171.249 58.224V55.1H170.171V54.121H170.391C170.655 54.121 170.864 54.0404 171.018 53.879C171.172 53.7177 171.249 53.505 171.249 53.241V52.757H172.272V54.121H173.603V55.1H172.272V58.191C172.272 58.389 172.301 58.5614 172.36 58.708C172.426 58.8547 172.532 58.972 172.679 59.06C172.825 59.1407 173.02 59.181 173.262 59.181C173.313 59.181 173.375 59.1774 173.449 59.17C173.529 59.1627 173.603 59.1554 173.669 59.148V60.05C173.573 60.072 173.467 60.0867 173.35 60.094C173.232 60.1087 173.133 60.116 173.053 60.116ZM177.128 60.182C176.534 60.182 176.017 60.0354 175.577 59.742C175.137 59.4487 174.825 59.0527 174.642 58.554L175.456 58.158C175.625 58.51 175.856 58.7887 176.149 58.994C176.442 59.1994 176.769 59.302 177.128 59.302C177.451 59.302 177.718 59.225 177.931 59.071C178.144 58.917 178.25 58.7154 178.25 58.466C178.25 58.29 178.199 58.1507 178.096 58.048C178.001 57.938 177.883 57.8537 177.744 57.795C177.605 57.729 177.476 57.6814 177.359 57.652L176.468 57.399C175.933 57.245 175.54 57.025 175.291 56.739C175.049 56.453 174.928 56.1194 174.928 55.738C174.928 55.386 175.016 55.0817 175.192 54.825C175.375 54.561 175.621 54.3557 175.929 54.209C176.244 54.0624 176.596 53.989 176.985 53.989C177.506 53.989 177.971 54.121 178.382 54.385C178.8 54.649 179.097 55.0194 179.273 55.496L178.437 55.881C178.305 55.573 178.107 55.331 177.843 55.155C177.579 54.9717 177.282 54.88 176.952 54.88C176.651 54.88 176.413 54.957 176.237 55.111C176.061 55.2577 175.973 55.4447 175.973 55.672C175.973 55.8407 176.017 55.98 176.105 56.09C176.193 56.1927 176.299 56.2734 176.424 56.332C176.549 56.3834 176.67 56.4274 176.787 56.464L177.755 56.75C178.239 56.8894 178.613 57.1057 178.877 57.399C179.148 57.6924 179.284 58.0444 179.284 58.455C179.284 58.785 179.192 59.082 179.009 59.346C178.826 59.61 178.573 59.8154 178.25 59.962C177.927 60.1087 177.553 60.182 177.128 60.182Z" fill="#6B6760"/>
<rect x="204" y="22" width="70" height="24" rx="4" fill="#3FAE5C"/>
<path d="M218.772 38.62C218.246 38.62 217.756 38.5233 217.302 38.33C216.856 38.1367 216.466 37.87 216.132 37.53C215.806 37.1833 215.549 36.7767 215.362 36.31C215.176 35.8433 215.082 35.33 215.082 34.77C215.082 34.2167 215.172 33.7067 215.352 33.24C215.539 32.7667 215.799 32.36 216.132 32.02C216.466 31.6733 216.856 31.4067 217.302 31.22C217.749 31.0267 218.239 30.93 218.772 30.93C219.299 30.93 219.769 31.02 220.182 31.2C220.602 31.38 220.956 31.6167 221.242 31.91C221.529 32.1967 221.736 32.51 221.862 32.85L220.802 33.35C220.642 32.95 220.386 32.6267 220.032 32.38C219.686 32.1267 219.266 32 218.772 32C218.279 32 217.842 32.1167 217.462 32.35C217.082 32.5833 216.786 32.9067 216.572 33.32C216.366 33.7333 216.262 34.2167 216.262 34.77C216.262 35.3233 216.366 35.81 216.572 36.23C216.786 36.6433 217.082 36.9667 217.462 37.2C217.842 37.4267 218.279 37.54 218.772 37.54C219.266 37.54 219.686 37.4167 220.032 37.17C220.386 36.9233 220.642 36.6 220.802 36.2L221.862 36.7C221.736 37.0333 221.529 37.3467 221.242 37.64C220.956 37.9333 220.602 38.17 220.182 38.35C219.769 38.53 219.299 38.62 218.772 38.62ZM225.478 38.62C224.958 38.62 224.481 38.4967 224.048 38.25C223.621 38.0033 223.281 37.6667 223.028 37.24C222.775 36.8133 222.648 36.33 222.648 35.79C222.648 35.2433 222.775 34.76 223.028 34.34C223.281 33.9133 223.621 33.58 224.048 33.34C224.475 33.0933 224.951 32.97 225.478 32.97C226.011 32.97 226.488 33.0933 226.908 33.34C227.335 33.58 227.671 33.9133 227.918 34.34C228.171 34.76 228.298 35.2433 228.298 35.79C228.298 36.3367 228.171 36.8233 227.918 37.25C227.665 37.6767 227.325 38.0133 226.898 38.26C226.471 38.5 225.998 38.62 225.478 38.62ZM225.478 37.57C225.798 37.57 226.081 37.4933 226.328 37.34C226.575 37.1867 226.768 36.9767 226.908 36.71C227.055 36.4367 227.128 36.13 227.128 35.79C227.128 35.45 227.055 35.1467 226.908 34.88C226.768 34.6133 226.575 34.4033 226.328 34.25C226.081 34.0967 225.798 34.02 225.478 34.02C225.165 34.02 224.881 34.0967 224.628 34.25C224.381 34.4033 224.185 34.6133 224.038 34.88C223.898 35.1467 223.828 35.45 223.828 35.79C223.828 36.13 223.898 36.4367 224.038 36.71C224.185 36.9767 224.381 37.1867 224.628 37.34C224.881 37.4933 225.165 37.57 225.478 37.57ZM229.401 38.5V33.09H230.481V34.15L230.351 34.01C230.485 33.67 230.698 33.4133 230.991 33.24C231.285 33.06 231.625 32.97 232.011 32.97C232.411 32.97 232.765 33.0567 233.071 33.23C233.378 33.4033 233.618 33.6433 233.791 33.95C233.965 34.2567 234.051 34.61 234.051 35.01V38.5H232.931V35.31C232.931 35.0367 232.881 34.8067 232.781 34.62C232.681 34.4267 232.538 34.28 232.351 34.18C232.171 34.0733 231.965 34.02 231.731 34.02C231.498 34.02 231.288 34.0733 231.101 34.18C230.921 34.28 230.781 34.4267 230.681 34.62C230.581 34.8133 230.531 35.0433 230.531 35.31V38.5H229.401ZM237.601 38.56C237.034 38.56 236.594 38.4 236.281 38.08C235.967 37.76 235.811 37.31 235.811 36.73V34.11H234.861V33.09H235.011C235.264 33.09 235.461 33.0167 235.601 32.87C235.741 32.7233 235.811 32.5233 235.811 32.27V31.85H236.941V33.09H238.171V34.11H236.941V36.68C236.941 36.8667 236.971 37.0267 237.031 37.16C237.091 37.2867 237.187 37.3867 237.321 37.46C237.454 37.5267 237.627 37.56 237.841 37.56C237.894 37.56 237.954 37.5567 238.021 37.55C238.087 37.5433 238.151 37.5367 238.211 37.53V38.5C238.117 38.5133 238.014 38.5267 237.901 38.54C237.787 38.5533 237.687 38.56 237.601 38.56ZM239.313 38.5V33.09H240.393V34.18L240.293 34.02C240.413 33.6667 240.607 33.4133 240.873 33.26C241.14 33.1 241.46 33.02 241.833 33.02H242.163V34.05H241.693C241.32 34.05 241.017 34.1667 240.783 34.4C240.557 34.6267 240.443 34.9533 240.443 35.38V38.5H239.313ZM245.546 38.62C245.026 38.62 244.55 38.4967 244.116 38.25C243.69 38.0033 243.35 37.6667 243.096 37.24C242.843 36.8133 242.716 36.33 242.716 35.79C242.716 35.2433 242.843 34.76 243.096 34.34C243.35 33.9133 243.69 33.58 244.116 33.34C244.543 33.0933 245.02 32.97 245.546 32.97C246.08 32.97 246.556 33.0933 246.976 33.34C247.403 33.58 247.74 33.9133 247.986 34.34C248.24 34.76 248.366 35.2433 248.366 35.79C248.366 36.3367 248.24 36.8233 247.986 37.25C247.733 37.6767 247.393 38.0133 246.966 38.26C246.54 38.5 246.066 38.62 245.546 38.62ZM245.546 37.57C245.866 37.57 246.15 37.4933 246.396 37.34C246.643 37.1867 246.836 36.9767 246.976 36.71C247.123 36.4367 247.196 36.13 247.196 35.79C247.196 35.45 247.123 35.1467 246.976 34.88C246.836 34.6133 246.643 34.4033 246.396 34.25C246.15 34.0967 245.866 34.02 245.546 34.02C245.233 34.02 244.95 34.0967 244.696 34.25C244.45 34.4033 244.253 34.6133 244.106 34.88C243.966 35.1467 243.896 35.45 243.896 35.79C243.896 36.13 243.966 36.4367 244.106 36.71C244.253 36.9767 244.45 37.1867 244.696 37.34C244.95 37.4933 245.233 37.57 245.546 37.57ZM249.47 38.5V30.93H250.6V38.5H249.47ZM251.921 38.5V30.93H253.051V38.5H251.921ZM256.912 38.62C256.372 38.62 255.892 38.4967 255.472 38.25C255.059 37.9967 254.735 37.6567 254.502 37.23C254.269 36.7967 254.152 36.3133 254.152 35.78C254.152 35.2333 254.269 34.75 254.502 34.33C254.742 33.91 255.062 33.58 255.462 33.34C255.862 33.0933 256.315 32.97 256.822 32.97C257.229 32.97 257.592 33.04 257.912 33.18C258.232 33.32 258.502 33.5133 258.722 33.76C258.942 34 259.109 34.2767 259.222 34.59C259.342 34.9033 259.402 35.2367 259.402 35.59C259.402 35.6767 259.399 35.7667 259.392 35.86C259.385 35.9533 259.372 36.04 259.352 36.12H255.042V35.22H258.712L258.172 35.63C258.239 35.3033 258.215 35.0133 258.102 34.76C257.995 34.5 257.829 34.2967 257.602 34.15C257.382 33.9967 257.122 33.92 256.822 33.92C256.522 33.92 256.255 33.9967 256.022 34.15C255.789 34.2967 255.609 34.51 255.482 34.79C255.355 35.0633 255.305 35.3967 255.332 35.79C255.299 36.1567 255.349 36.4767 255.482 36.75C255.622 37.0233 255.815 37.2367 256.062 37.39C256.315 37.5433 256.602 37.62 256.922 37.62C257.249 37.62 257.525 37.5467 257.752 37.4C257.985 37.2533 258.169 37.0633 258.302 36.83L259.222 37.28C259.115 37.5333 258.949 37.7633 258.722 37.97C258.502 38.17 258.235 38.33 257.922 38.45C257.615 38.5633 257.279 38.62 256.912 38.62ZM260.505 38.5V33.09H261.585V34.18L261.485 34.02C261.605 33.6667 261.798 33.4133 262.065 33.26C262.331 33.1 262.651 33.02 263.025 33.02H263.355V34.05H262.885C262.511 34.05 262.208 34.1667 261.975 34.4C261.748 34.6267 261.635 34.9533 261.635 35.38V38.5H260.505Z" fill="white"/>
<path d="M211.186 63.132C210.607 63.132 210.071 63.0293 209.58 62.824C209.096 62.6113 208.671 62.3143 208.304 61.933C207.945 61.5517 207.666 61.1043 207.468 60.591C207.27 60.0777 207.171 59.5167 207.171 58.908C207.171 58.292 207.27 57.7273 207.468 57.214C207.666 56.7007 207.945 56.2533 208.304 55.872C208.663 55.4907 209.089 55.1973 209.58 54.992C210.071 54.7793 210.607 54.673 211.186 54.673C211.751 54.673 212.257 54.772 212.704 54.97C213.159 55.168 213.54 55.4247 213.848 55.74C214.163 56.0553 214.387 56.3927 214.519 56.752L213.529 57.203C213.338 56.7483 213.041 56.3817 212.638 56.103C212.235 55.817 211.751 55.674 211.186 55.674C210.614 55.674 210.104 55.8097 209.657 56.081C209.217 56.3523 208.872 56.73 208.623 57.214C208.374 57.698 208.249 58.2627 208.249 58.908C208.249 59.546 208.374 60.107 208.623 60.591C208.872 61.075 209.217 61.4527 209.657 61.724C210.104 61.9953 210.614 62.131 211.186 62.131C211.751 62.131 212.235 61.9917 212.638 61.713C213.041 61.427 213.338 61.0567 213.529 60.602L214.519 61.053C214.387 61.4123 214.163 61.7497 213.848 62.065C213.54 62.3803 213.159 62.637 212.704 62.835C212.257 63.033 211.751 63.132 211.186 63.132ZM218.573 63.132C218.001 63.132 217.484 63 217.022 62.736C216.56 62.4647 216.193 62.0943 215.922 61.625C215.651 61.1557 215.515 60.624 215.515 60.03C215.515 59.436 215.647 58.908 215.911 58.446C216.182 57.984 216.549 57.6173 217.011 57.346C217.473 57.0747 217.994 56.939 218.573 56.939C219.145 56.939 219.662 57.0747 220.124 57.346C220.586 57.61 220.949 57.973 221.213 58.435C221.484 58.897 221.62 59.4287 221.62 60.03C221.62 60.6313 221.481 61.1667 221.202 61.636C220.923 62.098 220.553 62.4647 220.091 62.736C219.636 63 219.13 63.132 218.573 63.132ZM218.573 62.142C218.94 62.142 219.27 62.0503 219.563 61.867C219.864 61.6837 220.098 61.4307 220.267 61.108C220.443 60.7853 220.531 60.426 220.531 60.03C220.531 59.6267 220.443 59.271 220.267 58.963C220.098 58.6477 219.864 58.3983 219.563 58.215C219.27 58.0243 218.94 57.929 218.573 57.929C218.199 57.929 217.862 58.0243 217.561 58.215C217.268 58.3983 217.033 58.6477 216.857 58.963C216.681 59.271 216.593 59.6267 216.593 60.03C216.593 60.426 216.681 60.7853 216.857 61.108C217.033 61.4307 217.268 61.6837 217.561 61.867C217.862 62.0503 218.199 62.142 218.573 62.142ZM222.954 63V57.071H223.955V58.281L223.812 58.094C223.959 57.72 224.193 57.434 224.516 57.236C224.839 57.038 225.202 56.939 225.605 56.939C226.067 56.939 226.481 57.0673 226.848 57.324C227.222 57.5807 227.479 57.918 227.618 58.336L227.332 58.347C227.486 57.885 227.746 57.5367 228.113 57.302C228.48 57.06 228.887 56.939 229.334 56.939C229.745 56.939 230.115 57.0343 230.445 57.225C230.782 57.4157 231.05 57.6797 231.248 58.017C231.446 58.3543 231.545 58.7357 231.545 59.161V63H230.511V59.491C230.511 59.161 230.452 58.8823 230.335 58.655C230.218 58.4277 230.056 58.2517 229.851 58.127C229.653 57.995 229.418 57.929 229.147 57.929C228.883 57.929 228.645 57.995 228.432 58.127C228.227 58.2517 228.062 58.4313 227.937 58.666C227.82 58.8933 227.761 59.1683 227.761 59.491V63H226.727V59.491C226.727 59.161 226.668 58.8823 226.551 58.655C226.434 58.4277 226.272 58.2517 226.067 58.127C225.869 57.995 225.634 57.929 225.363 57.929C225.099 57.929 224.861 57.995 224.648 58.127C224.443 58.2517 224.278 58.4313 224.153 58.666C224.036 58.8933 223.977 59.1683 223.977 59.491V63H222.954ZM232.998 65.2V57.071H233.999V58.347L233.867 58.094C234.087 57.742 234.388 57.4633 234.769 57.258C235.15 57.0453 235.587 56.939 236.078 56.939C236.635 56.939 237.134 57.0747 237.574 57.346C238.021 57.6173 238.373 57.9877 238.63 58.457C238.887 58.919 239.015 59.447 239.015 60.041C239.015 60.6203 238.887 61.1447 238.63 61.614C238.373 62.0833 238.021 62.4537 237.574 62.725C237.134 62.9963 236.632 63.132 236.067 63.132C235.59 63.132 235.154 63.0257 234.758 62.813C234.369 62.6003 234.069 62.2997 233.856 61.911L234.021 61.735V65.2H232.998ZM235.99 62.142C236.364 62.142 236.698 62.0503 236.991 61.867C237.284 61.6837 237.512 61.4343 237.673 61.119C237.842 60.7963 237.926 60.437 237.926 60.041C237.926 59.6303 237.842 59.271 237.673 58.963C237.512 58.6477 237.284 58.3983 236.991 58.215C236.698 58.0243 236.364 57.929 235.99 57.929C235.616 57.929 235.279 58.0207 234.978 58.204C234.685 58.3873 234.45 58.6403 234.274 58.963C234.105 59.2783 234.021 59.6377 234.021 60.041C234.021 60.437 234.105 60.7963 234.274 61.119C234.45 61.4343 234.685 61.6837 234.978 61.867C235.279 62.0503 235.616 62.142 235.99 62.142ZM243.172 63.132C242.6 63.132 242.083 63 241.621 62.736C241.159 62.4647 240.793 62.0943 240.521 61.625C240.25 61.1557 240.114 60.624 240.114 60.03C240.114 59.436 240.246 58.908 240.51 58.446C240.782 57.984 241.148 57.6173 241.61 57.346C242.072 57.0747 242.593 56.939 243.172 56.939C243.744 56.939 244.261 57.0747 244.723 57.346C245.185 57.61 245.548 57.973 245.812 58.435C246.084 58.897 246.219 59.4287 246.219 60.03C246.219 60.6313 246.08 61.1667 245.801 61.636C245.523 62.098 245.152 62.4647 244.69 62.736C244.236 63 243.73 63.132 243.172 63.132ZM243.172 62.142C243.539 62.142 243.869 62.0503 244.162 61.867C244.463 61.6837 244.698 61.4307 244.866 61.108C245.042 60.7853 245.13 60.426 245.13 60.03C245.13 59.6267 245.042 59.271 244.866 58.963C244.698 58.6477 244.463 58.3983 244.162 58.215C243.869 58.0243 243.539 57.929 243.172 57.929C242.798 57.929 242.461 58.0243 242.16 58.215C241.867 58.3983 241.632 58.6477 241.456 58.963C241.28 59.271 241.192 59.6267 241.192 60.03C241.192 60.426 241.28 60.7853 241.456 61.108C241.632 61.4307 241.867 61.6837 242.16 61.867C242.461 62.0503 242.798 62.142 243.172 62.142ZM247.554 63V57.071H248.555V58.226L248.39 58.127C248.536 57.753 248.771 57.4633 249.094 57.258C249.424 57.0453 249.809 56.939 250.249 56.939C250.674 56.939 251.052 57.0343 251.382 57.225C251.719 57.4157 251.983 57.6797 252.174 58.017C252.372 58.3543 252.471 58.7357 252.471 59.161V63H251.437V59.491C251.437 59.161 251.378 58.8823 251.261 58.655C251.143 58.4277 250.975 58.2517 250.755 58.127C250.542 57.995 250.296 57.929 250.018 57.929C249.739 57.929 249.49 57.995 249.27 58.127C249.057 58.2517 248.888 58.4313 248.764 58.666C248.639 58.8933 248.577 59.1683 248.577 59.491V63H247.554ZM256.663 63.132C256.091 63.132 255.581 62.9963 255.134 62.725C254.686 62.4537 254.334 62.0833 254.078 61.614C253.821 61.1373 253.693 60.6057 253.693 60.019C253.693 59.425 253.817 58.897 254.067 58.435C254.323 57.973 254.668 57.61 255.101 57.346C255.541 57.0747 256.032 56.939 256.575 56.939C257.015 56.939 257.403 57.0197 257.741 57.181C258.085 57.335 258.375 57.5477 258.61 57.819C258.852 58.083 259.035 58.3873 259.16 58.732C259.292 59.0693 259.358 59.4213 259.358 59.788C259.358 59.8687 259.35 59.9603 259.336 60.063C259.328 60.1583 259.317 60.25 259.303 60.338H254.441V59.458H258.709L258.225 59.854C258.291 59.4727 258.254 59.1317 258.115 58.831C257.975 58.5303 257.77 58.292 257.499 58.116C257.227 57.94 256.919 57.852 256.575 57.852C256.23 57.852 255.915 57.94 255.629 58.116C255.343 58.292 255.119 58.545 254.958 58.875C254.804 59.1977 254.741 59.5827 254.771 60.03C254.741 60.4627 254.807 60.844 254.969 61.174C255.137 61.4967 255.372 61.7497 255.673 61.933C255.981 62.109 256.314 62.197 256.674 62.197C257.07 62.197 257.403 62.1053 257.675 61.922C257.946 61.7387 258.166 61.504 258.335 61.218L259.193 61.658C259.075 61.9293 258.892 62.1787 258.643 62.406C258.401 62.626 258.111 62.802 257.774 62.934C257.444 63.066 257.073 63.132 256.663 63.132ZM260.691 63V57.071H261.692V58.226L261.527 58.127C261.674 57.753 261.909 57.4633 262.231 57.258C262.561 57.0453 262.946 56.939 263.386 56.939C263.812 56.939 264.189 57.0343 264.519 57.225C264.857 57.4157 265.121 57.6797 265.311 58.017C265.509 58.3543 265.608 58.7357 265.608 59.161V63H264.574V59.491C264.574 59.161 264.516 58.8823 264.398 58.655C264.281 58.4277 264.112 58.2517 263.892 58.127C263.68 57.995 263.434 57.929 263.155 57.929C262.877 57.929 262.627 57.995 262.407 58.127C262.195 58.2517 262.026 58.4313 261.901 58.666C261.777 58.8933 261.714 59.1683 261.714 59.491V63H260.691ZM269.481 63.066C268.902 63.066 268.455 62.901 268.139 62.571C267.831 62.241 267.677 61.7753 267.677 61.174V58.05H266.599V57.071H266.819C267.083 57.071 267.292 56.9903 267.446 56.829C267.6 56.6677 267.677 56.455 267.677 56.191V55.707H268.7V57.071H270.031V58.05H268.7V61.141C268.7 61.339 268.73 61.5113 268.788 61.658C268.854 61.8047 268.961 61.922 269.107 62.01C269.254 62.0907 269.448 62.131 269.69 62.131C269.742 62.131 269.804 62.1273 269.877 62.12C269.958 62.1127 270.031 62.1053 270.097 62.098V63C270.002 63.022 269.896 63.0367 269.778 63.044C269.661 63.0587 269.562 63.066 269.481 63.066Z" fill="#6B6760"/>
</svg>
